<?xml version="1.0" encoding="utf-8"?>
<svg viewBox="178 368.2 644 263.6" xmlns="http://www.w3.org/2000/svg">
  <path fill="#1D8ECD" d="M279.984 491.105q-2.56-6.44-7.39-9.185 11.244-8.393 11.244-26.71c0-7.038-1.46-13.425-4.364-19.144-3.589-7.038-8.622-10.575-15.115-10.575h-47.526v110.993h16.628v-101.58h21.995c4.258 0 7.443 2.622 9.572 7.883 1.689 3.924 2.516 8.34 2.516 13.267s-.827 9.343-2.516 13.267c-2.129 5.032-5.314 7.548-9.572 7.548h-15.273v9.414h14.939c4.364 0 7.619 3.185 9.748 9.572a38 38 0 0 1 1.531 5.859c.545 2.886.809 5.983.809 9.255v25.514h15.783v-25.514c0-2.252-.07-4.399-.229-6.405-.387-5.365-1.302-9.852-2.78-13.459m83.052-22.504c1.038-3.871 1.566-8.235 1.566-13.056 0-1.812-.088-3.554-.246-5.261-.493-5.155-1.76-9.836-3.783-14.041-3.466-7.161-8.446-10.751-14.939-10.751H315.58c-6.493 0-11.42 3.589-14.78 10.751-2.692 5.595-4.029 12.035-4.029 19.302 0 7.725 1.284 14.217 3.853 19.426 1.214 2.499 2.727 4.698 4.54 6.616-2.622 2.833-4.628 6.229-6.018 10.17q-2.375 6.703-2.375 15.519c0 7.161 1.337 13.496 4.029 18.968 3.466 6.95 8.393 10.417 14.78 10.417h30.053c6.493 0 11.472-3.466 14.939-10.417 2.692-5.472 4.029-11.807 4.029-18.968 0-11.085-2.85-19.654-8.551-25.69 3.273-3.466 5.596-7.795 6.986-12.985m-16.734 51.097c-2.235 5.156-5.437 7.725-9.572 7.725h-12.088c-4.258 0-7.443-2.569-9.572-7.725-1.672-3.801-2.516-8.164-2.516-13.091 0-4.821.845-9.132 2.516-12.933 2.129-4.927 5.314-7.39 9.572-7.39h12.088c4.258 0 7.443 2.463 9.572 7.39 1.689 3.801 2.516 8.112 2.516 12.933 0 4.927-.827 9.291-2.516 13.091m0-50.376c-2.129 5.032-5.314 7.548-9.572 7.548h-12.088c-1.777 0-3.361-.44-4.786-1.302-1.988-1.232-3.642-3.308-4.944-6.246a29.4 29.4 0 0 1-1.39-4.417c-.651-2.745-.968-5.683-.968-8.851 0-4.927.774-9.343 2.358-13.267 2.235-5.261 5.472-7.883 9.73-7.883h12.088c3.502 0 6.282 1.777 8.34 5.349.44.757.862 1.601 1.232 2.534 1.337 3.097 2.129 6.51 2.393 10.241.088.985.123 1.988.123 3.027 0 4.927-.827 9.343-2.516 13.267"/>
  <path fill="#A7A9AC" d="m445.207 425.491-22.17 85.972-22.153-85.972h-18.986v110.993h13.109v-79.251l12.757 48.599 7.918 30.141.141.51h14.604l.334-1.249 20.657-78.512v79.761h12.774V425.491zm96.899 23.015-22.505 66.652-24.176-66.652h-19.144l33.572 87.978-24.722 68.341-4.944 13.689 10.399 13.285 4.856-13.76 59.931-169.534z"/>
  <path fill="#1D8ECD" d="m572.6 425.007-3.167 9.202h15.818v102.266h16.804V434.21h23.842v-9.202zm107.368 30.538c-2.921-4.575-8.622-6.88-17.138-6.88h-28.206v9.238h21.326c4.364 0 7.39 1.46 9.079 4.364 1.109 2.129 1.672 5.595 1.672 10.417v54.582h-23.684c-2.798 0-4.927-2.463-6.37-7.39-1.02-3.361-1.513-6.95-1.513-10.751 0-6.722 1.056-11.191 3.185-13.443 1.689-1.777 4.927-2.674 9.748-2.674.897 0 2.569.053 5.032.158h6.053v-9.238h-22.505c-5.947 0-10.469 3.079-13.601 9.238-2.586 5.032-3.871 10.804-3.871 17.297s1.285 12.159 3.871 16.962c3.132 6.053 7.654 9.062 13.601 9.062h46.681v-62.13c.001-9.064-1.125-15.328-3.36-18.812m18.3-30.054v110.993h16.962V425.491zm61.637 62.641 31.056-39.625h-16.962l-24.845 34.417v-57.432h-16.962v110.993h16.962v-38.957l25.514 38.957h18.81z"/>
  <path fill="#1D8ECD" d="M259.82 368.2v31.971h12.317v-19.654h537.546v201.188H272.137v-19.654H259.82v31.971H822V368.2z"/>
  <path fill="#A7A9AC" d="M178 394.013V568.21h278.521l-9.625-12.317H190.317V406.33h366.376l-9.167 26.693h13.021l13.408-39.009z"/>
  <path fill="#A7A9AC" d="m495.443 618.04-4.857 13.76-10.399-13.285-39.308-50.306-9.625-12.316h15.642l9.625 12.316 28.611 36.617z"/>
</svg>